# xmcd CD database file
#
# Track frame offsets:
#	150
#	27745
#	46470
#	64795
#	85595
#	102915
#	128415
#	156007
#	175250
#	188160
#	217145
#	239307
#	263387
#	281415
#
# Disc length: 4007 seconds
#
# Revision: 2
# Processed by: cddbd v1.4PL0 Copyright (c) Steve Scherf et al.
# Submitted via: CDex 1.50beta10
#
DISCID=bb0fa50e
DTITLE=Snooks Eaglin - Soul's Edge
DYEAR=1995
DGENRE=Blues
TTITLE0=Josephine
TTITLE1=Show Me The Way Back Home
TTITLE2=Ling Ting Tong
TTITLE3=Aw' Some Funk
TTITLE4=I'm Not Ashamed
TTITLE5=Nine Pound Steel
TTITLE6=Answer Now
TTITLE7=Skinny Minnie
TTITLE8=Thrill On The Hill
TTITLE9=You And Me
TTITLE10=I Went To The Mardi Gras
TTITLE11=Talk To Me
TTITLE12=Mama And Papa
TTITLE13=God Will Take Care
EXTD=YEAR: 1995
EXTT0=
EXTT1=
EXTT2=
EXTT3=
EXTT4=
EXTT5=
EXTT6=
EXTT7=
EXTT8=
EXTT9=
EXTT10=
EXTT11=
EXTT12=
EXTT13=
PLAYORDER=
